<svg xmlns="http://www.w3.org/2000/svg" width="256" height="256" viewBox="0 0 256 256"><path fill="#1976d2" fill-opacity=".016" fill-rule="evenodd" d="M0 128.004v128.004l128.25-.254 128.25-.254.254-127.75L257.008 0H0zm.485.496c0 70.4.119 99.053.265 63.672s.146-92.98 0-128S.485 58.1.485 128.5"/><path fill="#1976d2" fill-opacity=".119" fill-rule="evenodd" d="M96.732 2.053C89.438 3.256 83.755 6.497 76.55 13.561 72.938 17.102 69.571 20 69.068 20s-3.135-.512-5.847-1.138c-2.713-.627-6.582-.829-8.598-.451-7.811 1.465-14.529 11.244-13.249 19.286 2.005 12.597 2.079 11.793-1.649 17.973-5.066 8.399-6.885 14.56-7.477 25.33-.288 5.225-.943 9.771-1.456 10.102-.513.332-3.473.012-6.578-.71-7.77-1.806-13.066-.406-17.648 4.667-1.902 2.105-3.949 5.649-4.548 7.874-1.282 4.762-1.238 67.514.056 78.965 1.042 9.224 4.558 16.647 10.847 22.903 4.866 4.839 22.81 14.845 69.265 38.622C100.313 252.702 103.465 254 107.86 254c7.151 0 10.014-1.357 15.354-7.275l4.713-5.225 4.832 5.197c2.657 2.858 6.078 5.671 7.601 6.25 4.058 1.543 11.018 1.286 15.678-.579 7.724-3.09 78.45-40.556 83.348-44.152 5.897-4.328 11.917-13.279 13.765-20.467 1.022-3.978 1.349-14.936 1.349-45.249v-40l-2.716-4.62c-4.286-7.29-9.743-9.136-21.938-7.422l-5.654.795.085-9.892c.073-8.571-.254-10.631-2.448-15.422-9.96-21.756-34.909-27.202-54.091-11.807-7.227 5.8-9.841 6.686-13.21 4.478-3.311-2.169-3.884-3.438-7.044-15.61-1.5-5.775-4.309-13.549-6.242-17.275-8.455-16.293-27.58-26.465-44.51-23.672M91.5 9.855c-2.2 1.052-6.643 4.463-9.872 7.58-5.526 5.334-5.838 5.884-5.28 9.32.829 5.112 6.148 10.234 11.351 10.931 3.762.505 4.359.214 9.381-4.576 2.95-2.814 6.176-5.374 7.169-5.689 3.182-1.01 10.414 3.355 13.649 8.239 2.891 4.365 3.841 7.71 5.962 20.992 1.369 8.578 5.534 16.485 11.809 22.42 7.478 7.072 13.002 9.39 22.331 9.372 9.439-.019 14.807-2.461 23.702-10.782 5.165-4.831 6.984-5.947 9.579-5.873 4.269.121 6.916 3.411 6.519 8.102-.354 4.184-2.07 5.256-11.987 7.491-10.76 2.426-21.703 7.456-26.369 12.121-5.232 5.233-9.833 14.589-12.508 25.437-2.24 9.085-3.963 13.126-7.274 17.06-1.157 1.375.294.076 3.224-2.886 3.918-3.961 5.543-5.038 6.141-4.07.535.866 1.378-.71 2.467-4.615 7.305-26.187 12.727-31.854 35.506-37.111 14.161-3.267 17.78-6.701 16.745-15.884-.444-3.939-1.23-5.49-4.132-8.15-2.96-2.712-4.381-3.284-8.164-3.284-5.764 0-7.737 1.031-13.945 7.286-9.864 9.939-19.492 12.059-30.282 6.667C136.461 74.576 130.968 65.848 129 51c-2.587-19.518-11.774-29.683-26.31-29.111-1.916.076-4.521 1.729-8.188 5.198-5.922 5.6-8.18 5.86-11.179 1.283-1.578-2.408-1.514-2.591 2.277-6.509 8.394-8.675 17.821-10.262 29.143-4.906 12.098 5.723 17.111 13.291 21.194 31.997 2.405 11.021 4.799 15.81 10.225 20.455 9.177 7.855 16.18 7.003 27.316-3.323 5.502-5.101 8.48-7.088 11.922-7.954 20.133-5.07 35.389 19.663 21.729 35.226-2.684 3.059-8.071 5.269-18.629 7.644-5.5 1.237-11.631 3.073-13.624 4.081-4.36 2.203-8.568 6.983-10.933 12.419-1.903 4.374-3.555 11.649-2.254 9.927 1.302-1.723 4.304-2.511 4.367-1.146.031.671.818-.599 1.75-2.82 4.507-10.748 8.801-14.162 20.694-16.456 20.669-3.988 29.506-12.173 29.624-27.439.154-20.099-20.314-33.769-38.509-25.72-2.61 1.154-7.455 4.784-10.767 8.066-7.31 7.242-10.224 8.134-16.053 4.916-6.022-3.324-8.294-7.389-11.242-20.114-4.529-19.546-10.899-28.808-24.361-35.419-7.523-3.694-19.564-4.369-25.692-1.44M53.299 24.934C49.275 27.419 47 31.742 47 36.899c0 3.395.529 4.402 3.5 6.669 1.925 1.468 3.5 3.205 3.5 3.86 0 .656-2.052 3.596-4.56 6.534-5.965 6.987-9.132 13.397-10.346 20.936-1.651 10.252 1.225 21.275 7.463 28.602l2.554 3-1.77-2.902-1.77-2.902 4.964 2.838c2.731 1.561 7.85 4.293 11.376 6.07 6.033 3.042 6.239 3.258 3.5 3.664-2.299.341-2.039.464 1.234.582 9.354.338 23.081-6.257 31.14-14.963 2.043-2.207 5.007-4.699 6.586-5.539 3.918-2.081 9.149-1.01 11.331 2.32 2.795 4.266 1.978 8.516-2.982 15.511-5.495 7.752-9.274 15.177-10.085 19.821-.336 1.925-.363 2.963-.059 2.306.765-1.652 3.418-.459 3.451 1.551.015.904 1.28-1.292 2.81-4.878s5.386-10.337 8.567-15c5.742-8.418 5.781-8.524 5.394-14.712-.328-5.227-.86-6.722-3.297-9.266-1.598-1.668-4.621-3.495-6.718-4.059-6.645-1.79-10.383-.332-18.542 7.234-4.089 3.791-10.203 8.326-13.587 10.078-5.426 2.808-7.125 3.189-14.353 3.215-8.187.031-8.205.025-12.169-3.843-9.2-8.977-12.188-24.341-6.939-35.672 1.39-3 4.381-7.537 6.646-10.084C57.841 53.372 60 49.366 60 46.438c0-.788-1.575-3.176-3.5-5.306-4.085-4.521-4.379-6.958-1.202-9.943l2.299-2.159 6.419 3.735c7.274 4.232 19.847 16.056 22.424 21.087 1.666 3.253 1.653 3.42-.447 5.656-3.325 3.539-5.483 3.634-8.602.378C75.279 57.682 73.715 57 70.77 57c-3.202 0-4.688.779-8.771 4.598-9.411 8.802-11.682 19.625-6.36 30.305 6.447 12.938 17.586 11.761 32.817-3.47 10.855-10.855 19.884-13.121 30.608-7.683 7.967 4.04 11.299 9.297 11.765 18.563.343 6.822.155 7.568-3.703 14.687-7.719 14.245-11.021 21.514-11.583 25.5-.374 2.653-.277 3.334.289 2.022.774-1.793 1.092-1.605 3.382 2 1.389 2.188 3.514 4.862 4.722 5.942 2.054 1.839 2.079 2.01.379 2.68-1.367.539-1.075.729 1.185.772 4.194.079 7.949-1.02 6.514-1.907-.776-.48-.168-1.701 1.855-3.724l3.01-3.01-5.463 2.013c-13.474 4.963-14.084-4.611-1.559-24.444 5.472-8.665 7.145-13.758 7.133-21.72C136.967 84.417 124.388 72 108.5 72c-8.765 0-13.862 2.45-22.994 11.051C77.329 90.753 70.828 95 67.214 95c-1.026 0-2.814-1.013-3.973-2.25-7.685-8.203-4.541-23.881 5.875-29.302 2.402-1.249 2.813-1.151 5 1.201 3.808 4.094 6.423 4.649 11.444 2.427 5.284-2.337 8.76-7.282 7.994-11.373-1.215-6.495-14.894-21.121-26.141-27.951-7.883-4.787-10.184-5.246-14.114-2.818m51.089 11.836c-1.162.183-3.374 1.649-4.915 3.258-2.795 2.918-2.799 2.944-1.618 9.699.652 3.725 1.289 8.798 1.415 11.273l.23 4.5 8.096.288c10.945.389 11.237.003 9.079-12.006-2.332-12.981-5.964-18.01-12.287-17.012M68.073 75.635c-2.322 2.951-2.552 4.601-1.038 7.431 1.526 2.851 5.398 2.37 9.43-1.17 4.206-3.692 4.557-6.557.97-7.921-4.31-1.638-7.166-1.132-9.362 1.66M145.2 95.2c-1.401 1.401-1.622 8.421-.291 9.244 1.05.649 6.091-4.996 6.091-6.821 0-1.522-2.03-3.623-3.5-3.623-.605 0-1.64.54-2.3 1.2M13.764 96.876c-6.015 3.018-5.967 2.595-5.347 47.167.642 46.256.732 46.835 8.445 54.925 3.961 4.155 10.694 8.035 46.138 26.584 46.819 24.502 47.794 24.854 53.383 19.265 2.478-2.478 3.619-4.677 4.088-7.877.358-2.442.511-21.315.34-41.94-.303-36.5-.37-37.611-2.527-41.643-1.218-2.278-3.987-5.653-6.152-7.5-4.492-3.83-87.95-49.03-92.286-49.981-1.77-.388-4.068-.01-6.082 1M225 100.881c-4.675 2.618-24.25 13.235-43.5 23.593s-36.502 20.227-38.338 21.93-4.31 4.896-5.5 7.096c-2.088 3.863-2.173 5.282-2.486 41.5-.365 42.258.044 46.325 5.092 50.572 2.573 2.165 3.87 2.558 7.186 2.178 5.504-.632 85.557-42.577 90.881-47.618 7.162-6.783 7.904-9.344 8.878-30.632.478-10.45.739-30.177.578-43.838l-.291-24.838-2.806-2.412c-4.479-3.851-9.542-3.216-19.694 2.469m-210.037 2.663c-1.017 1.226-1.155 9.697-.668 41.146l.613 39.602 2.542 5.195c1.398 2.858 3.331 5.909 4.296 6.78C24.824 199.049 107.625 242 109.909 242c4.665 0 5.093-3.734 5.069-44.218-.025-41.696-.203-42.899-7.119-47.983C102.237 145.667 20.358 102 18.231 102c-1.092 0-2.563.695-3.268 1.544m177.096 22.012c-23.892 12.913-44.318 24.259-45.391 25.211-1.073.953-2.777 3.533-3.787 5.733-1.677 3.651-1.839 7.251-1.859 41.282-.024 40.704.388 44.22 5.177 44.216 2.454-.002 84.743-42.733 88.054-45.724 1.08-.976 3.101-4.018 4.492-6.761l2.529-4.988.506-38.625c.278-21.244.208-39.812-.156-41.263-.517-2.059-1.261-2.629-3.393-2.598-1.609.022-20.571 9.68-46.172 23.517m-92.662-18.784c-2.693 2.124-7.485 5.514-10.647 7.532-3.162 2.019-5.75 4.094-5.75 4.611 0 1.289 4.27 4.54 7.985 6.079 2.643 1.094 3.326 1.035 4.946-.431 2.291-2.074 10.778-16.509 11.238-19.114.575-3.257-2.663-2.706-7.772 1.323m34.592 22.478c-1.09 1.787-1.983 4.053-1.985 5.035-.003 1.469.347 1.598 1.973.727 2.372-1.269 4.023-4.12 4.023-6.946 0-3.037-1.753-2.519-4.011 1.184"/><path fill="#1976d2" fill-opacity=".095" fill-rule="evenodd" d="M101.813 5.683c.721.289 1.584.253 1.916-.079s-.258-.568-1.312-.525c-1.165.048-1.402.285-.604.604M95 7c0 .55.477 1 1.059 1s.781-.45.441-1-.816-1-1.059-1S95 6.45 95 7m12.5 0c-.34.55.084 1 .941 1S110 7.55 110 7s-.423-1-.941-1-1.219.45-1.559 1m4.5 1.059c0 .582.45.781 1 .441s1-.816 1-1.059S113.55 7 113 7s-1 .477-1 1.059m-27.66 3.775C79.303 15.824 76.251 19 77.454 19c.385 0-.704 1.181-2.42 2.625-2.64 2.221-3.807 2.548-7.577 2.123-2.46-.277-4.457-.083-4.457.434 0 .515.45.658 1 .318s1-.205 1 .299c0 .505 2.528 2.596 5.617 4.647 5.709 3.791 21.576 18.824 21.354 20.232-.066.425.434.957 1.113 1.183.86.287.992-.16.434-1.475-2.072-4.88-1.798-7.484 1.109-10.544 3.2-3.369 9.34-6.844 12.083-6.838 6.053.012 11.28 7.522 13.414 19.269 1.18 6.499 2.845 7.51 2.845 1.727 0-1.942-.209-2.169-.936-1.018-.637 1.007-.873-.298-.735-4.074.169-4.646-.294-6.358-2.829-10.463-3.607-5.84-8.558-9.445-12.972-9.445-2.572 0-4.189 1.04-8.169 5.25-4.691 4.962-5.178 5.22-8.895 4.704-7.16-.994-11.88-5.696-12.509-12.459-.23-2.466.679-3.957 5.148-8.444 2.986-2.997 5.778-5.355 6.206-5.241s1.037-.468 1.355-1.295c.317-.827 1.049-1.212 1.626-.855.613.379.753.169.336-.505-.969-1.57-.801-1.641-6.255 2.679m30.055-2.664c-.486.787-.178.961.941.531.915-.351 1.664-.176 1.664.389 0 .566.45.75 1 .41s1-.115 1 .5.403.869.895.565c.493-.305 1.164.147 1.493 1.004s1.004 1.307 1.5 1 1.171.143 1.5 1 .973 1.326 1.431 1.043c.981-.606 7.801 6.384 7.422 7.607-.143.46.417 1.096 1.244 1.414s1.255.979.95 1.472c-.304.492-.05.895.565.895s.797.52.405 1.155c-.446.72-.274.882.456.431 2.783-1.72-6.833-12.808-15.338-17.686-5.67-3.252-6.12-3.362-7.128-1.73M94.5 15.394c-1.65.794-5.159 3.475-7.798 5.96-4.289 4.038-4.666 4.731-3.548 6.522.689 1.102 2.299 2.564 3.58 3.249 2.144 1.148 2.745.834 7.611-3.972 8.311-8.208 15.571-8.054 24.742.525 5.593 5.232 8.528 11.556 9.921 21.38 1.385 9.763 1.906 11.705 4.549 16.942 4.852 9.617 14.903 16.333 24.443 16.333 7.312 0 12.476-2.598 20.584-10.358 4.2-4.02 7.192-6.03 9.663-6.493 6.738-1.265 12.72 2.246 15.288 8.972 3.368 8.817-1.924 16.586-12.358 18.144-6.379.952-17.534 4.835-22.863 7.958-7.358 4.312-11.837 12.097-15.833 27.518-1.9 7.333-5.182 14.229-6.41 13.47-.469-.29-2.441 1.23-4.382 3.378s-3.861 3.607-4.269 3.242-.456-.164-.108.446c.851 1.492-6.627 4.79-10.861 4.79-4.399 0-7.705-1.868-9.909-5.599-3.458-5.853-.561-16.589 7.748-28.707 8.947-13.05 8.79-26.049-.422-34.801-3.509-3.334-10.35-6.293-14.551-6.293-7.12 0-11.491 2.26-20.33 10.512C79.086 97.755 73.381 101 67.029 101c-3.764 0-4.845-.532-8.161-4.018-5.34-5.614-7.589-13.453-6.018-20.977 1.895-9.074 10.196-18.489 17.322-19.645 2.985-.485 4.088-.071 7.278 2.73 3.571 3.136 3.894 3.228 6.405 1.823 1.455-.814 2.779-2.403 2.943-3.532.701-4.825-13.631-19.472-24.588-25.128L56.877 29.5l-1.939 2.361c-2.74 3.337-2.433 5.043 1.562 8.703 2.71 2.482 3.5 3.988 3.5 6.671 0 3.422-3.566 9.535-7.411 12.702-3.415 2.813-6.867 11.323-7.359 18.138-.856 11.876 5.049 24.457 13.321 28.382 8.982 4.262 22.991-.686 35.221-12.441 7.652-7.355 11.015-8.799 17.89-7.683 5.23.848 8.277 3.276 10.543 8.399 2.998 6.776 2.059 10.758-5.006 21.213-5.386 7.972-9.039 15.585-10.752 22.41-.517 2.061.091 2.919 3.947 5.572 4.587 3.156 8.824 9.222 10.007 14.323.606 2.616.923 2.75 6.524 2.75 5.395 0 5.844.167 5.365 2-.371 1.417-.031 2 1.165 2 1.15 0 1.617-.717 1.465-2.25-.122-1.238.295-3.517.929-5.065.633-1.548 1.151-3.168 1.151-3.6s1.284-2.557 2.853-4.723c2.833-3.912 6.733-6.338 34.397-21.403 5.363-2.921 9.75-5.708 9.75-6.194s.45-.605 1-.265 1 .216 1-.274c0-.491.563-.898 1.25-.906 1.927-.019 35.75-18.494 35.75-19.527 0-.501.45-.633 1-.293s1 .066 1-.608.282-.943.627-.599c.825.826 6.373-2.063 6.373-3.319 0-1.418-1.254-1.213-6.141 1.004-8.076 3.665-10.431 2.287-7.822-4.576.754-1.984.714-3.024-.147-3.815-.886-.813-1.029-.646-.569.663.339.962.154 1.75-.411 1.75-.566 0-.779.403-.475.895.305.493-.183 1.178-1.084 1.524-.9.345-1.367.899-1.036 1.229s-1.506 2.343-4.082 4.471c-4.962 4.1-9.82 6.035-19.983 7.958-3.437.651-6.25 1.601-6.25 2.112s-.43.663-.956.338c-1.35-.834-7.199 1.809-9.351 4.227-.994 1.117-3.307 5.479-5.139 9.693-1.832 4.215-3.679 7.976-4.103 8.358s-.388.02.081-.805c.75-1.321.62-1.327-1.09-.049-1.068.798-2.548 2.148-3.289 3-1.155 1.328-1.256 1.05-.703-1.951 1.694-9.202 4.945-17.167 8.791-21.536 5.193-5.9 7.61-7.056 20.907-9.997 13.532-2.993 16.914-4.944 20.281-11.701 7.205-14.459-2.661-30.67-18.711-30.744-6.774-.031-10.981 2.065-17.894 8.914-9.374 9.287-16.496 10.357-25.571 3.844-6.253-4.487-8.663-9.031-11.746-22.15-1.405-5.978-3.492-13.049-4.638-15.713-2.512-5.839-10.168-13.277-16.591-16.118-5.98-2.645-15.753-3.339-19.778-1.405m-37.687 7.289c.721.289 1.584.253 1.916-.079s-.258-.568-1.312-.525c-1.165.048-1.402.285-.604.604m81.766 9.189c-.383.62-.235 1.128.331 1.128.565 0 .768.675.452 1.5-.317.825-.048 1.5.598 1.5.743 0 .927.782.5 2.125-.466 1.468-.32 1.906.473 1.416.812-.501.947.09.461 2.024-.515 2.054-.374 2.541.567 1.959.955-.59 1.083-.001.539 2.476-.512 2.333-.39 3.05.433 2.541.805-.497.954.063.499 1.875-.379 1.507-.226 2.584.366 2.584.558 0 .807.796.552 1.769-.615 2.353 3.377 8.13 7.572 10.957 5.036 3.394 9.278 2.991 14.067-1.335 2.197-1.985 3.778-3.959 3.514-4.387-.597-.965 1.964-3.203 2.758-2.41.317.318 1.086-.374 1.708-1.536.622-1.163 1.628-1.807 2.236-1.431.684.423.82.222.356-.528-.54-.874-1.627-.491-3.905 1.375C163.812 62.719 161.621 64 158.072 64c-7.135 0-10.578-4.855-14.552-20.522-2.673-10.534-3.868-13.342-4.941-11.606M96.405 35.25 94.5 37.5l2.25-1.905C98.864 33.805 99.455 33 98.655 33c-.19 0-1.202 1.013-2.25 2.25M47.392 47.361c.055 2.946-.698 5.268-2.613 8.056-1.48 2.154-2.488 4.245-2.241 4.645.248.401-.222.986-1.044 1.302-1.705.654-2.032 2.636-.435 2.636.582 0 .81-.403.506-.895-.305-.493.147-1.164 1.004-1.493s1.307-1.004 1-1.5.119-1.162.946-1.479 1.387-.951 1.244-1.407c-.142-.456 1.429-2.316 3.491-4.131 4.035-3.553 4.695-6.066 2.149-8.179-3.048-2.529-4.089-1.894-4.007 2.445M188 50c0 .55 1.125 1 2.5 1s2.5-.45 2.5-1-1.125-1-2.5-1-2.5.45-2.5 1m-5.5 1c.34.55 1.068 1 1.618 1s.722-.45.382-1-1.068-1-1.618-1-.722.45-.382 1m15 0c-.34.55-.141 1 .441 1S199 51.55 199 51s-.198-1-.441-1-.719.45-1.059 1m-18 1c.34.55.816 1 1.059 1s.441-.45.441-1-.477-1-1.059-1-.781.45-.441 1m21 0c-.34.55-.141 1 .441 1S202 52.55 202 52s-.198-1-.441-1-.719.45-1.059 1m5.996 3.007c-.355.573-.274.931.18.795.969-.291 7.858 6.393 7.578 7.353-.105.36.47.909 1.278 1.219 1.926.739 1.88.573-.877-3.164-3.222-4.367-7.353-7.508-8.159-6.203M94.158 57c0 1.375.227 1.938.504 1.25.278-.687.278-1.812 0-2.5-.277-.687-.504-.125-.504 1.25m28.327 2.024c-.348.564-.341 2.354.015 3.978 1.099 5.001-.129 6.996-4.317 7.013-2.026.009-4.358.495-5.183 1.081-1.155.821-.868.928 1.25.466 1.7-.371 2.75-.179 2.75.502 0 .607.541.922 1.202.702s1.898.177 2.75.882c.851.705 3.448 2.642 5.77 4.303 4.204 3.008 10.251 11.998 10.269 15.268.013 2.477 2.82 1.115 3.201-1.554.224-1.577 1.122-2.254 3.308-2.492 1.65-.18 3.45-.808 4-1.397.693-.742.483-.889-.685-.479-.927.325-1.827.271-2-.12s-2.683-2.434-5.578-4.539C134.055 78.87 126 68.95 126 66.337c0-.735-.436-1.337-.969-1.337s-.681-.749-.33-1.664c.439-1.144.261-1.43-.571-.916-.881.544-1.034.045-.562-1.836.656-2.613.08-3.442-1.083-1.56M65.752 66.75c-6.799 6.977-8.354 14.31-4.655 21.951 4.255 8.789 9.233 7.857 21.164-3.964 4.531-4.489 8.589-8.062 9.017-7.94s1.037-.455 1.355-1.282c.317-.827.979-1.255 1.472-.95.492.304.895.05.895-.565s.45-.84 1-.5 1 .093 1-.548.675-.907 1.5-.59c.825.316 1.5.139 1.5-.393 0-3.376-8.616 1.399-17.03 9.437-8.237 7.87-12.385 9.78-16.478 7.59-4.648-2.488-5.704-8.7-2.535-14.913C66.125 69.835 67.541 69 72.582 69c4.016 0 4.263-.857 1.104-3.826-3.094-2.906-3.68-2.79-7.934 1.576m25.738-1.734c-.346.559-1.05.756-1.566.437s-1.207.121-1.536.978-1.07 1.266-1.647.909c-.661-.409-.747-.159-.231.675.615.996.343 1.144-1.096.596-1.441-.549-1.632-.445-.771.422.792.799 1.715.846 3.011.152 2.029-1.086 6.03-5.185 5.06-5.185-.328 0-.879.457-1.224 1.016M39.5 66c.34.55.816 1 1.059 1s.441-.45.441-1-.477-1-1.059-1-.781.45-.441 1M38 67.882c0 .55.45 1.278 1 1.618s1 .168 1-.382-.45-1.278-1-1.618-1-.168-1 .382M101.5 71c.34.55 1.379.993 2.309.985 1.457-.014 1.484-.15.191-.985-1.958-1.266-3.282-1.266-2.5 0m-64.5.941c0 .518.45 1.219 1 1.559s1-.084 1-.941S38.55 71 38 71s-1 .423-1 .941m181.667-.274c-.367.366-.667 1.131-.667 1.7 0 .626.466.567 1.183-.15.651-.651.951-1.416.667-1.7s-.817-.217-1.183.15m-36.372 5.992c-7.668 7.489-15.775 11.339-23.878 11.34-7.152.001-8.622.875-4.434 2.636 4.107 1.727 3.897 4.256-.995 12.001-3.951 6.256-6.097 11.414-9.351 22.473-2.99 10.161-11.05 18.052-15.505 15.18-3.076-1.982-1.799-8.057 3.741-17.789 5.38-9.453 5.786-10.5 4.068-10.5-.582 0-.781.45-.441 1s.115 1-.5 1-.84.45-.5 1 .115 1-.5 1-.869.403-.565.895c.305.493-.147 1.164-1.004 1.493s-1.307 1.004-1 1.5-.143 1.171-1 1.5-1.278 1.051-.935 1.605.07 1.007-.604 1.007-.963.263-.642.583c.321.321-.296 1.463-1.37 2.537s-1.685 2.387-1.357 2.916c.327.53.141.964-.413.964-1.734 0-4.674 10.881-3.463 12.816 2.168 3.462 11.47 1.955 17.129-2.776 2.635-2.203 6.617-10.596 5.717-12.052-.336-.543-.086-.988.556-.988.746 0 .941-.903.54-2.5-.381-1.518-.2-2.5.459-2.5.632 0 .821-.838.452-2-.389-1.225-.18-2 .54-2 .646 0 .915-.675.598-1.5-.316-.825-.091-1.5.5-1.5.592 0 .817-.675.5-1.5s-.113-1.5.452-1.5.75-.45.41-1-.115-1 .5-1 .84-.45.5-1-.115-1 .5-1 .84-.45.5-1-.115-1 .5-1 .84-.45.5-1-.115-1 .5-1 .854-.427.531-.95.321-1.436 1.431-2.03 1.91-1.567 1.778-2.163c-.708-3.193 20.656-12.437 35.44-15.335 5.894-1.155 7.797-7.316 3.506-11.348-3.86-3.626-6.928-2.827-13.391 3.485m-146.28 2.65c-.009 2.955.371 4.571.985 4.191 1.272-.786 1.272-5.532 0-7.5-.7-1.083-.974-.165-.985 3.309m183.516-2.016c-.428.986-.497 2.074-.155 2.417 1.016 1.015 1.835-.411 1.367-2.382-.414-1.747-.468-1.748-1.212-.035M218 85.882c0 .55.45 1.278 1 1.618s1 .168 1-.382-.45-1.278-1-1.618-1-.168-1 .382M37.667 87.667c-.367.366-.667 2.63-.667 5.031 0 5.376-1.336 6.057-7.66 3.902-5.538-1.887-5.34-1.864-5.34-.626 0 1.256 5.548 4.145 6.373 3.319.345-.344.627-.075.627.599s.45.948 1 .608 1-.216 1 .276c0 1.638 39.31 22.581 40.378 21.512.342-.342.622-.07.622.604s.45.948 1 .608 1-.157 1 .406.954 1.534 2.121 2.159c1.709.914 1.985.873 1.426-.215-.383-.743-.055-.569.728.384.782.954 1.716 1.442 2.074 1.084s.651-.1.651.574.45.948 1 .608 1-.115 1 .5.45.84 1 .5 1-.115 1 .5.45.84 1 .5 1-.184 1 .346c0 .801 10.097 7.154 11.371 7.154.363 0 1.959-8.058 2.08-10.5.027-.55.637-1.621 1.357-2.379.719-.758 1.085-1.959.813-2.667-.272-.709.18-1.548 1.006-1.864.825-.317 1.22-1.029.877-1.583S106.385 118 107 118s.869-.403.565-.895c-.305-.493.183-1.178 1.084-1.524.9-.345 1.367-.898 1.037-1.229-.331-.33.392-1.429 1.607-2.443 1.214-1.013 1.89-1.857 1.502-1.876s.4-1.138 1.75-2.488c3.094-3.093 3.26-8.252.382-11.91-1.661-2.113-2.92-2.635-6.347-2.635-3.945 0-4.732.482-10.178 6.228-3.246 3.426-6.252 6.122-6.68 5.991s-1.037.439-1.355 1.266c-.317.827-.983 1.253-1.479.946s-1.171.143-1.5 1-1 1.309-1.493 1.004c-.492-.304-.895-.05-.895.565s-.45.84-1 .5-1-.115-1 .5-.45.84-1 .5-1-.156-1 .41c0 .565-.675.768-1.5.452-.825-.317-1.5-.173-1.5.319 0 1.368-14.254 1.597-19.046.307-5.484-1.477-14.274-9.723-17.228-16.161C40.508 94.172 39.163 92 38.737 92s-.493-1.125-.148-2.5c.628-2.5.332-3.088-.922-1.833M148.5 89c-.34.55-.168 1 .382 1s1.278-.45 1.618-1 .168-1-.382-1-1.278.45-1.618 1m-127 6c-.34.55-.141 1 .441 1S23 95.55 23 95s-.198-1-.441-1-.719.45-1.059 1M233 95c0 .55.477 1 1.059 1s.781-.45.441-1-.816-1-1.059-1-.441.45-.441 1m-130.027 3.713c-1.36.942-4.864 3.651-7.786 6.02-2.973 2.41-5.836 4.007-6.5 3.627-.653-.375-.849-.308-.436.148s-2.399 2.567-6.25 4.694S75 117.71 75 118.495c0 2.251 3.916 5.345 11.548 9.121 8.102 4.01 11.086 3.678 14.288-1.587 1.011-1.662 2.208-2.686 2.661-2.275.453.41.497.179.098-.515-.839-1.456 6.133-13.525 7.371-12.76.444.275.766-.058.715-.74s.278-2.944.732-5.029c1.426-6.551-3.826-9.887-9.44-5.997m-87.896 5.143c-1.324 2.473-.335 76.173 1.098 81.852 2.228 8.833 4.427 10.332 50.164 34.196C89.63 232.057 109.197 242 109.82 242s1.796-1.012 2.606-2.25c1.223-1.871 1.503-8.835 1.657-41.317.223-47.138.945-44.071-12.231-51.933-.921-.55-6.778-3.726-13.014-7.057s-24.412-13.119-40.391-21.75S18.646 102 17.732 102s-2.109.835-2.655 1.856M191.5 126.31c-43.617 23.54-45.077 24.423-47.5 28.738l-2.5 4.452v38.545c0 35.674.136 38.753 1.831 41.338 1.373 2.096 2.382 2.655 4.037 2.239 1.214-.304 20.415-10.061 42.669-21.681 44.072-23.012 47.548-25.396 49.759-34.123 1.55-6.12 2.633-79.147 1.214-81.8-.594-1.11-1.852-2.013-2.795-2.007-.943.007-21.965 10.941-46.715 24.299M6.5 104c.34.55.816 1 1.059 1s.441-.45.441-1-.477-1-1.059-1-.781.45-.441 1m241.5.059c0 .582.45.781 1 .441s1-.816 1-1.059-.45-.441-1-.441-1 .477-1 1.059m-110.631 3.108c.395 1.681.184 2.815-.571 3.067-.91.303-.917.574-.028 1.124 1.695 1.048 2.826-4.184 1.228-5.681-.995-.933-1.126-.623-.629 1.49m112.474 11.083c-.128 8.339-.285 9.318-.843 5.25-.377-2.75-.712 7.375-.744 22.5-.07 32.932.952 46.087 1.941 25 .798-16.992 1.04-63 .332-63-.291 0-.6 4.612-.686 10.25M5.588 140c.216 17.325.468 34.2.56 37.5l.167 6 .718-7c.836-8.141.92-62.713.089-57.5-.464 2.91-.673 2.321-1.242-3.5-.376-3.85-.507 7.175-.292 24.5m175.655-27.024c-2.655 1.205-4.632 2.916-5.25 4.544-1.256 3.303-1.278 3.157.561 3.862 2.995 1.15 17.185-7.377 15.856-9.527-.912-1.476-6.734-.891-11.167 1.121M42.445 161c0 17.325.137 24.412.303 15.75.167-8.663.167-22.838 0-31.5-.166-8.663-.303-1.575-.303 15.75m5.362-29.622c-1.523 1.132-1.702 4.304-1.777 31.435-.1 36.057-.896 33.529 14.071 44.687 6.231 4.645 9.816 6.999 20.545 13.491 2.28 1.38 7.679 4.704 11.997 7.387s9.538 5.105 11.6 5.381c6.205.833 6.758-1.789 6.751-31.977-.003-13.905-.443-26.857-.978-28.782s-3.345-6.523-6.244-10.217c-2.9-3.695-6.555-8.556-8.124-10.802-3.616-5.178-7.373-7.503-21.648-13.395-11.134-4.595-13.83-5.532-17-5.908-.825-.098-1.725-.446-2-.774-1.149-1.37-5.62-1.697-7.193-.526M44.445 162c0 17.325.137 24.412.303 15.75.167-8.663.167-22.838 0-31.5-.166-8.663-.303-1.575-.303 15.75M102 137.271c0 .833.675 1.774 1.5 2.091.825.316 1.5.194 1.5-.271s-.675-1.406-1.5-2.091c-1.221-1.013-1.5-.963-1.5.271m.436 14.061c.31 1.007.564 2.21.564 2.673 0 1.366 5.037 6.947 7.358 8.153l2.142 1.113-2.101-2.385c-1.156-1.312-2.379-3.173-2.719-4.136s-1.067-1.75-1.617-1.75c-.549 0-1.717-1.238-2.595-2.75-.877-1.512-1.342-1.926-1.032-.918M121 163.917c0 1.228.646 2.083 1.573 2.083.932 0 1.442-.68 1.25-1.667-.486-2.509-2.823-2.853-2.823-.416m5.25 2.82-5.25.368.015 34.197c.009 18.809.398 34.802.866 35.54.622.982.982.654 1.34-1.22.27-1.409.105-2.324-.365-2.033-.471.291-.755-11.76-.631-26.78l.225-27.309.55 26.5.55 26.5.225-27.679c.192-23.625.455-27.908 1.796-29.25 2.298-2.297 4.344-1.924 5.454.994.544 1.431.975 14.2.975 28.875 0 26.491.505 33.947 2.126 31.391.464-.732.85-16.968.859-36.081.014-32.504-.098-34.738-1.735-34.565-.963.102-4.113.35-7 .552M7.333 185.575c-1.141 2.974 5.775 14.554 11.088 18.565 5.243 3.958 82.793 44.86 85.054 44.86.289 0 .525-.477.525-1.059s-.45-.781-1-.441-1 .115-1-.5-.45-.84-1-.5-1 .115-1-.5-.45-.84-1-.5-1 .115-1-.5-.403-.869-.895-.565c-.493.305-1.151-.111-1.462-.924-.351-.914-1.217-1.228-2.269-.824-1.144.439-1.467.273-.986-.506.482-.78.156-.943-1-.5-1.256.483-1.497.304-.898-.666q.817-1.322-.335-.61c-.635.392-1.155.21-1.155-.405s-.45-.84-1-.5-1 .115-1-.5-.45-.84-1-.5-1 .115-1-.5-.45-.84-1-.5-1 .115-1-.5-.45-.84-1-.5-1 .115-1-.5-.45-.84-1-.5-1 .066-1-.608-.262-.963-.583-.642-1.436-.269-2.478-1.311c-1.146-1.146-2.559-1.638-3.58-1.246-1.23.471-1.465.288-.869-.678q.817-1.322-.335-.61c-.635.392-1.155.21-1.155-.405s-.45-.84-1-.5-1 .115-1-.5-.45-.84-1-.5-1 .115-1-.5-.45-.84-1-.5-1 .115-1-.5-.45-.84-1-.5-1 .115-1-.5-.45-.84-1-.5-1 .115-1-.5-.45-.84-1-.5-1 .153-1-.415c0-.569-1.4-1.757-3.11-2.642-2.307-1.193-2.933-1.264-2.426-.276.376.733.044.552-.739-.401-.782-.954-1.716-1.442-2.074-1.084s-.651.1-.651-.574-.45-.948-1-.608-1 .115-1-.5-.45-.84-1-.5-1 .115-1-.5-.45-.84-1-.5-1 .115-1-.5-.45-.84-1-.5-1 .115-1-.5-.45-.84-1-.5-1 .151-1-.421c0-1.296-7.524-5.221-8.376-4.369-.343.343-.624.072-.624-.602s-.45-.948-1-.608-1 .115-1-.5-.45-.84-1-.5-1 .115-1-.5-.45-.84-1-.5-1 .115-1-.5-.45-.84-1-.5-1 .141-1-.441-.337-.959-.75-.836c-.995.295-7.76-6.504-7.463-7.501.127-.428-.445-1.037-1.272-1.355-.827-.317-1.255-.979-.95-1.472.304-.492.05-.895-.565-.895s-.84-.45-.5-1 .156-1-.41-1c-.565 0-.768-.675-.452-1.5.317-.825.048-1.5-.598-1.5-.72 0-.929-.775-.54-2 .747-2.353-.283-2.728-1.167-.425M247 185.382c0 .825.45 1.778 1 2.118s1-.057 1-.882-.45-1.778-1-2.118-1 .057-1 .882m-.679 3.868c.339.963.154 1.75-.411 1.75-.566 0-.75.45-.41 1s.115 1-.5 1-.84.45-.5 1 .141 1-.441 1-.946.368-.809.818c.306 1.003-7.454 8.651-8.5 8.378-.412-.108-.75.281-.75.863s-.45.781-1 .441-1-.115-1 .5-.45.84-1 .5-1-.066-1 .608-.28.946-.622.604c-.854-.854-10.378 4.069-10.378 5.364 0 .573-.45.764-1 .424s-1-.115-1 .5-.45.84-1 .5-1-.115-1 .5-.45.84-1 .5-1-.115-1 .5-.45.84-1 .5-1-.066-1 .608-.279.946-.62.605c-.855-.855-12.38 5.066-12.38 6.36 0 .575-.45.767-1 .427s-1-.115-1 .5-.45.84-1 .5-1-.115-1 .5-.45.84-1 .5-1-.115-1 .5-.45.84-1 .5-1-.066-1 .608-.28.946-.622.604c-.854-.854-10.378 4.069-10.378 5.364 0 .573-.45.764-1 .424s-1-.115-1 .5-.45.84-1 .5-1-.115-1 .5-.45.84-1 .5-1-.115-1 .5-.45.84-1 .5-1-.066-1 .608-.28.946-.622.604c-.854-.854-10.378 4.069-10.378 5.364 0 .573-.45.764-1 .424s-1-.115-1 .5-.45.84-1 .5-1-.115-1 .5-.45.84-1 .5-1-.115-1 .5-.45.84-1 .5-1-.141-1 .441.505 1.059 1.122 1.059c1.945 0 74.074-37.789 81.752-42.83 7.892-5.183 14.69-15.129 12.016-17.583-.886-.813-1.029-.646-.569.663M134 240.059c0 .582.45.781 1 .441s1-.816 1-1.059-.45-.441-1-.441-1 .477-1 1.059"/><path fill="#1976d2" fill-opacity=".105" fill-rule="evenodd" d="M95.608 15.418C91.543 16.926 83 24.527 83 26.636c0 .67 1.206 2.167 2.68 3.327l2.68 2.108 4.57-4.42c2.513-2.431 5.553-4.922 6.754-5.535 5.823-2.974 15.971.223 21.343 6.724 4.822 5.835 7.004 11.381 8.566 21.778.802 5.34 2.296 11.604 3.32 13.918 4.487 10.144 15.018 17.482 25.033 17.442 7.397-.029 12.668-2.572 19.722-9.514 3.175-3.125 6.828-6.082 8.117-6.573 11.952-4.543 23.809 9.063 17.259 19.805-2.601 4.265-5.372 5.885-12.544 7.33-7.75 1.562-19.176 5.665-23 8.26-6.337 4.301-10.184 11.114-14.014 24.822-1.443 5.166-3.478 10.855-4.521 12.642-2.294 3.929-1.861 3.976 4.463.477 4.788-2.65 4.964-2.91 6.224-9.227 2.713-13.598 7.397-21.471 15.093-25.371 2.62-1.327 9.193-3.373 14.607-4.546s11.096-2.781 12.627-3.572c5.637-2.915 9.999-10.492 10.015-17.395.019-8.144-6.919-17.588-14.61-19.886-9.247-2.763-14.908-.924-23.982 7.788-3.41 3.275-7.4 6.411-8.866 6.968-6.899 2.623-15.105.247-21.235-6.148-4.05-4.225-5.728-8.28-8.267-19.978-2.623-12.082-6.894-20.792-12.413-25.315-8.599-7.046-19.489-9.919-27.013-7.127M71.554 28.72c-.363.945-.399 1.458-.08 1.139s3.83 2.495 7.803 6.253 7.818 6.845 8.546 6.86c2.5.053.674-3.303-2.823-5.189-4.186-2.258-9-7.232-9-9.299 0-2.061-3.639-1.868-4.446.236m-17.158 4.575-1.571 3.295 4.037 4.037 4.037 4.037.301-3.492c.219-2.547.818-3.567 2.214-3.768C67.426 36.827 80 48.038 80 52.193c0 2.5-2.56 3.307-10.499 3.307h-6.999L61.307 52c-.657-1.925-1.22-2.806-1.251-1.957s-2.351 4.224-5.155 7.5c-7.294 8.521-9.209 13.25-9.294 22.957-.055 6.343.416 9.083 2.275 13.227 3.038 6.774 9.562 12.834 14.761 13.713 8.834 1.492 19.872-3.204 30.105-12.809 8.313-7.802 9.853-8.631 16.038-8.631 9.378 0 15.659 6.958 14.953 16.564-.3 4.074-1.265 6.323-4.936 11.5-5.481 7.729-9.054 14.662-11.086 21.512l-1.506 5.075 4.645 3.455 4.644 3.455-.331-5.624c-.369-6.264 2.192-12.78 9.74-24.786 5.146-8.185 6.779-15.113 5.158-21.872-2.4-10.003-10.559-16.216-21.349-16.257-8.011-.03-11.555 1.749-20.553 10.321-9.107 8.675-14.643 11.815-20.999 11.911-4.166.063-4.898-.316-8.665-4.476-9.102-10.053-8.574-23.866 1.304-34.11 7.238-7.508 12.635-8.572 17.847-3.52 3.181 3.083 3.302 3.112 5.852 1.441 3.859-2.528 3.979-4.027.705-8.784C78.812 43.965 61.597 30 57.329 30c-.749 0-2.068 1.483-2.933 3.295M51 47c0 1.1.408 2 .906 2s.671-.9.384-2-.696-2-.907-2c-.21 0-.383.9-.383 2m18.606 17.584c-.373.973-.15 1.431.581 1.187C71.682 65.273 72.505 63 71.19 63c-.537 0-1.249.713-1.584 1.584m55.684 8.526c-1.646 1.646 10.599 14.227 12.396 12.736 1.41-1.17.328-2.902-6.308-10.096-3.735-4.05-4.393-4.335-6.088-2.64m63.71-.218c0 .49 1.118 1.172 2.485 1.515 2.588.65 4.219 4.316 3.154 7.091-.358.932.003 1.502.951 1.502.841 0 1.274-.412.963-.915s-.032-1.092.621-1.31c.652-.217.937-1.043.633-1.835a59 59 0 0 1-.874-2.44c-.537-1.67-2.387-3.318-3.183-2.836-.412.25-.75-.023-.75-.605S192.1 72 191 72s-2 .401-2 .892m-16.5 12.937c-3.3 1.415-6.292 2.998-6.649 3.517-.357.52-1.37.669-2.25.331-1.682-.645-1.987.153-1.022 2.669.502 1.307 1.143 1.334 4.75.205 2.294-.718 5.521-1.883 7.171-2.59s3.338-1.211 3.75-1.122.75-.337.75-.946c0-.62.77-.839 1.75-.498 1.566.546 1.583.478.162-.643-.873-.688-1.773-1.757-2-2.373-.272-.741-2.45-.248-6.412 1.45M40.383 101.755c-1.478 2.343.836 4.257 13.002 10.753 12.67 6.766 16.155 7.952 16.335 5.56.089-1.185-1.244-2.055-4.547-2.968-9.8-2.707-10.987-3.266-15.959-7.51-2.81-2.399-4.869-4.601-4.576-4.895s-.315-.987-1.353-1.542c-1.43-.766-2.131-.621-2.902.602m-24.716.912c-1.139 1.138-.766 75.771.405 81.233 1.922 8.963 5.058 11.954 21.59 20.596 8.161 4.266 20.8 10.886 28.088 14.711 7.287 3.825 13.25 6.751 13.25 6.503s-6.862-4.176-15.25-8.729-15.475-8.599-15.75-8.994-3.106-2.24-6.291-4.102a2682 2682 0 0 1-9.5-5.577c-4.902-2.898-9.544-8.326-11.13-13.015-.862-2.549-1.533-14.291-2.047-35.793-.709-29.675-.635-32.259 1.028-35.565 2.548-5.068 4.563-4.885 18.739 1.702 3.136 1.457 6.376 3.193 7.201 3.858s5.048 2.664 9.384 4.442 12.211 5.514 17.5 8.303 9.166 4.617 8.616 4.064C79.842 134.636 19.12 102 17.674 102c-.737 0-1.641.3-2.007.667M214.5 114.131c-23.031 12.564-55.443 29.918-61.606 32.983-4.778 2.376-9.651 8.056-10.394 12.115-.33 1.799-.464 20.52-.299 41.602.281 35.974.413 38.415 2.152 39.686 1.269.928 2.585 1.077 4.172.474 5.38-2.046 83.179-43.398 85.322-45.352 2.927-2.667 5.692-8.049 6.495-12.639.836-4.786 1.02-78.605.198-79.935-.362-.586-1.419-1.036-2.349-1.001s-11.591 5.465-23.691 12.067m9.5 3.016c-1.925 1.176-6.2 3.581-9.5 5.344-42.88 22.905-40.094 21.173-46.41 28.852-3.237 3.936-8.031 9.181-10.653 11.655-8.694 8.201-8.429 7.052-8.433 36.641-.004 24.311.131 26.305 1.92 28.5l1.923 2.361 11.327-5.719c10.946-5.527 22.057-11.335 47.326-24.735 22.581-11.975 21.133-8.723 22.075-49.591.763-33.142.511-35.459-3.86-35.451-1.218.002-3.79.966-5.715 2.143m-56.799 10.174c-1.953 5.4-1.185 6.176 2.61 2.64 1.204-1.121 2.196-1.684 2.204-1.25s.426.14.928-.653c.626-.989.385-1.844-.765-2.719-2.638-2.005-3.686-1.588-4.977 1.982m-69.472 5.811c-2.38 1.332-2.167 2.347.771 3.686 2.292 1.044 2.5.938 2.5-1.28 0-2.955-.99-3.683-3.271-2.406M87 139.462c0 .268 1.237 1.13 2.75 1.917s4.009 3.161 5.549 5.276c1.539 2.115 6.377 8.721 10.75 14.68L114 172.17v-3.841c0-3.328-.411-4.023-3.08-5.204-4.01-1.775-8.787-8.438-9.572-13.353-.578-3.613-1.101-4.126-7.485-7.341-3.775-1.901-6.863-3.237-6.863-2.969m51.099 1.788c-1.377 2.242-1.375 2.243.759.345 2.292-2.038 2.588-2.595 1.383-2.595-.418 0-1.382 1.012-2.142 2.25m-17.099.781c0 2.545 2.212 4.969 4.535 4.969 2.91 0 3.116-.767.715-2.657-3.369-2.651-5.25-3.479-5.25-2.312m13.038 9.687c-5.245 2.683-8.98 2.88-13.199.699-2.327-1.204-2.93-1.264-2.515-.25.3.733 1.097 3.021 1.769 5.083 1.123 3.441 1.53 3.75 4.94 3.75 7.965 0 9.49-.811 11.797-6.271 1.181-2.796 2.04-5.131 1.909-5.189s-2.247.922-4.701 2.178m18.973 3.15c-5.276 5.414-4.597 5.507 1.325.182 2.312-2.079 5.539-6.382 4.449-5.932-.157.064-2.755 2.652-5.774 5.75m-43.577-1.618c1.542 2.063 2.991 3.75 3.22 3.75.882 0-1.576-3.616-3.746-5.511-1.865-1.629-1.77-1.31.526 1.761m22.066 13.482c-1.1.275-2.324 1.01-2.719 1.634-.531.835-1.251.805-2.737-.116-2.926-1.814-5.044-1.534-5.044.667 0 2.4 1.828 3.081 4.75 1.771 1.567-.703 3.023-.657 4.797.151 3.795 1.73 4.453 1.458 4.453-1.839 0-1.65-.338-2.948-.75-2.884s-1.65.341-2.75.616m-19.281 69.289c-.701 1.122-2.604 2.306-4.23 2.631-3.67.734-2.917 2.348 1.095 2.348 2.288 0 3.196-.605 3.974-2.651 1.317-3.464.788-4.933-.839-2.328"/></svg>